<mxfile host="app.diagrams.net" modified="2024-04-22T13:46:33.379Z" agent="Mozilla/5.0 (Windows NT 10.0; Win64; x64) AppleWebKit/537.36 (KHTML, like Gecko) Chrome/124.0.0.0 Safari/537.36 Edg/124.0.0.0" etag="S5bZX-T8Jcv3k5l5ohf9" version="24.2.7" type="github">
  <diagram name="第 1 页" id="1KC3sexovGQNuW9UPDPh">
    <mxGraphModel dx="1386" dy="785" grid="0" gridSize="10" guides="1" tooltips="1" connect="1" arrows="1" fold="1" page="1" pageScale="1" pageWidth="827" pageHeight="1169" math="0" shadow="0">
      <root>
        <mxCell id="0" />
        <mxCell id="1" parent="0" />
        <mxCell id="JTuHlGbgM8I44bOIE4Gs-1" value="&lt;font style=&quot;font-size: 20px;&quot;&gt;IEC61131-3标准&lt;/font&gt;" style="rounded=0;whiteSpace=wrap;html=1;" vertex="1" parent="1">
          <mxGeometry x="146" y="31" width="535" height="40" as="geometry" />
        </mxCell>
        <mxCell id="JTuHlGbgM8I44bOIE4Gs-2" value="&lt;font style=&quot;font-size: 19px;&quot;&gt;公共元素&lt;/font&gt;" style="rounded=0;whiteSpace=wrap;html=1;" vertex="1" parent="1">
          <mxGeometry x="67" y="109" width="274" height="40" as="geometry" />
        </mxCell>
        <mxCell id="JTuHlGbgM8I44bOIE4Gs-4" value="&lt;font style=&quot;font-size: 20px;&quot;&gt;编程语言&lt;/font&gt;" style="rounded=0;whiteSpace=wrap;html=1;" vertex="1" parent="1">
          <mxGeometry x="391" y="109" width="380" height="40" as="geometry" />
        </mxCell>
        <mxCell id="JTuHlGbgM8I44bOIE4Gs-8" value="" style="shape=partialRectangle;whiteSpace=wrap;html=1;bottom=0;top=0;fillColor=none;" vertex="1" parent="1">
          <mxGeometry x="201" y="71" width="350" height="38" as="geometry" />
        </mxCell>
        <mxCell id="JTuHlGbgM8I44bOIE4Gs-9" value="变量" style="rounded=0;whiteSpace=wrap;html=1;rotation=90;align=center;direction=east;flipH=1;flipV=0;verticalAlign=middle;fontSize=20;horizontal=0;" vertex="1" parent="1">
          <mxGeometry x="45" y="237" width="160" height="40" as="geometry" />
        </mxCell>
        <mxCell id="JTuHlGbgM8I44bOIE4Gs-10" value="程序组织单元" style="rounded=0;whiteSpace=wrap;html=1;rotation=90;fontSize=20;horizontal=0;" vertex="1" parent="1">
          <mxGeometry x="105.5" y="256.5" width="200" height="40" as="geometry" />
        </mxCell>
        <mxCell id="JTuHlGbgM8I44bOIE4Gs-11" value="配置元素" style="rounded=0;whiteSpace=wrap;html=1;rotation=90;fontSize=20;horizontal=0;" vertex="1" parent="1">
          <mxGeometry x="198" y="256.5" width="200" height="40" as="geometry" />
        </mxCell>
        <mxCell id="JTuHlGbgM8I44bOIE4Gs-12" value="&lt;span style=&quot;font-size: 20px;&quot;&gt;功能块图&lt;/span&gt;" style="rounded=0;whiteSpace=wrap;html=1;rotation=90;horizontal=0;" vertex="1" parent="1">
          <mxGeometry x="579" y="327" width="200" height="40" as="geometry" />
        </mxCell>
        <mxCell id="JTuHlGbgM8I44bOIE4Gs-16" value="&lt;font style=&quot;font-size: 20px;&quot;&gt;文本类&lt;/font&gt;" style="rounded=0;whiteSpace=wrap;html=1;" vertex="1" parent="1">
          <mxGeometry x="411" y="178" width="120" height="40" as="geometry" />
        </mxCell>
        <mxCell id="JTuHlGbgM8I44bOIE4Gs-17" value="&lt;font style=&quot;font-size: 20px;&quot;&gt;图形类&lt;/font&gt;" style="rounded=0;whiteSpace=wrap;html=1;" vertex="1" parent="1">
          <mxGeometry x="579" y="178" width="195" height="40" as="geometry" />
        </mxCell>
        <mxCell id="JTuHlGbgM8I44bOIE4Gs-18" value="" style="line;strokeWidth=1;direction=south;html=1;spacingTop=9;" vertex="1" parent="1">
          <mxGeometry x="120" y="149" width="10" height="28" as="geometry" />
        </mxCell>
        <mxCell id="JTuHlGbgM8I44bOIE4Gs-19" value="" style="line;strokeWidth=1;direction=south;html=1;spacingTop=9;" vertex="1" parent="1">
          <mxGeometry x="201" y="149" width="10" height="28" as="geometry" />
        </mxCell>
        <mxCell id="JTuHlGbgM8I44bOIE4Gs-20" value="" style="line;strokeWidth=1;direction=south;html=1;spacingTop=9;" vertex="1" parent="1">
          <mxGeometry x="293" y="149" width="10" height="28" as="geometry" />
        </mxCell>
        <mxCell id="JTuHlGbgM8I44bOIE4Gs-22" value="" style="line;strokeWidth=1;direction=south;html=1;spacingTop=9;" vertex="1" parent="1">
          <mxGeometry x="466" y="149" width="10" height="28" as="geometry" />
        </mxCell>
        <mxCell id="JTuHlGbgM8I44bOIE4Gs-24" value="" style="line;strokeWidth=1;direction=south;html=1;spacingTop=9;" vertex="1" parent="1">
          <mxGeometry x="662" y="150" width="10" height="28" as="geometry" />
        </mxCell>
        <mxCell id="JTuHlGbgM8I44bOIE4Gs-25" value="&lt;font style=&quot;font-size: 20px;&quot;&gt;顺序功能图表&lt;/font&gt;" style="rounded=0;whiteSpace=wrap;html=1;rotation=90;horizontal=0;" vertex="1" parent="1">
          <mxGeometry x="652" y="327" width="200" height="40" as="geometry" />
        </mxCell>
        <mxCell id="JTuHlGbgM8I44bOIE4Gs-26" value="&lt;font style=&quot;font-size: 20px;&quot;&gt;梯形图&lt;/font&gt;" style="rounded=0;whiteSpace=wrap;html=1;rotation=90;horizontal=0;" vertex="1" parent="1">
          <mxGeometry x="525.75" y="302.25" width="150.5" height="40" as="geometry" />
        </mxCell>
        <mxCell id="JTuHlGbgM8I44bOIE4Gs-27" value="&lt;font style=&quot;font-size: 20px;&quot;&gt;结构化文本&lt;/font&gt;" style="rounded=0;whiteSpace=wrap;html=1;rotation=90;horizontal=0;" vertex="1" parent="1">
          <mxGeometry x="401" y="327" width="200" height="40" as="geometry" />
        </mxCell>
        <mxCell id="JTuHlGbgM8I44bOIE4Gs-28" value="&lt;font style=&quot;font-size: 20px;&quot;&gt;语句表&lt;/font&gt;" style="rounded=0;whiteSpace=wrap;html=1;rotation=90;horizontal=0;" vertex="1" parent="1">
          <mxGeometry x="357.75" y="302.25" width="150.5" height="40" as="geometry" />
        </mxCell>
        <mxCell id="JTuHlGbgM8I44bOIE4Gs-29" value="" style="line;strokeWidth=1;direction=south;html=1;spacingTop=9;" vertex="1" parent="1">
          <mxGeometry x="428" y="218" width="10" height="28" as="geometry" />
        </mxCell>
        <mxCell id="JTuHlGbgM8I44bOIE4Gs-30" value="" style="line;strokeWidth=1;direction=south;html=1;spacingTop=9;" vertex="1" parent="1">
          <mxGeometry x="496" y="218" width="10" height="28" as="geometry" />
        </mxCell>
        <mxCell id="JTuHlGbgM8I44bOIE4Gs-31" value="" style="line;strokeWidth=1;direction=south;html=1;spacingTop=9;" vertex="1" parent="1">
          <mxGeometry x="595" y="219" width="10" height="28" as="geometry" />
        </mxCell>
        <mxCell id="JTuHlGbgM8I44bOIE4Gs-32" value="" style="line;strokeWidth=1;direction=south;html=1;spacingTop=9;" vertex="1" parent="1">
          <mxGeometry x="674" y="218" width="10" height="28" as="geometry" />
        </mxCell>
        <mxCell id="JTuHlGbgM8I44bOIE4Gs-33" value="" style="line;strokeWidth=1;direction=south;html=1;spacingTop=9;" vertex="1" parent="1">
          <mxGeometry x="746" y="218" width="10" height="28" as="geometry" />
        </mxCell>
        <mxCell id="JTuHlGbgM8I44bOIE4Gs-34" value="函数" style="rounded=0;whiteSpace=wrap;html=1;rotation=90;align=center;direction=east;flipH=1;flipV=0;verticalAlign=middle;fontSize=20;horizontal=0;" vertex="1" parent="1">
          <mxGeometry x="96.88" y="440" width="101" height="40" as="geometry" />
        </mxCell>
        <mxCell id="JTuHlGbgM8I44bOIE4Gs-35" value="功能块" style="rounded=0;whiteSpace=wrap;html=1;rotation=90;align=center;direction=east;flipH=1;flipV=0;verticalAlign=middle;fontSize=20;horizontal=0;" vertex="1" parent="1">
          <mxGeometry x="154.38" y="440" width="101" height="40" as="geometry" />
        </mxCell>
        <mxCell id="JTuHlGbgM8I44bOIE4Gs-36" value="程序" style="rounded=0;whiteSpace=wrap;html=1;rotation=90;align=center;direction=east;flipH=1;flipV=0;verticalAlign=middle;fontSize=20;horizontal=0;" vertex="1" parent="1">
          <mxGeometry x="210.13" y="440" width="101" height="40" as="geometry" />
        </mxCell>
        <mxCell id="JTuHlGbgM8I44bOIE4Gs-37" value="" style="line;strokeWidth=1;html=1;" vertex="1" parent="1">
          <mxGeometry x="149" y="386" width="111" height="10" as="geometry" />
        </mxCell>
        <mxCell id="JTuHlGbgM8I44bOIE4Gs-38" value="" style="line;strokeWidth=1;direction=south;html=1;spacingTop=9;" vertex="1" parent="1">
          <mxGeometry x="198" y="377" width="10" height="32" as="geometry" />
        </mxCell>
        <mxCell id="JTuHlGbgM8I44bOIE4Gs-39" value="" style="line;strokeWidth=1;direction=south;html=1;spacingTop=9;" vertex="1" parent="1">
          <mxGeometry x="255.38" y="391" width="10" height="19" as="geometry" />
        </mxCell>
        <mxCell id="JTuHlGbgM8I44bOIE4Gs-40" value="" style="line;strokeWidth=1;direction=south;html=1;spacingTop=9;" vertex="1" parent="1">
          <mxGeometry x="143.38" y="391" width="10" height="19" as="geometry" />
        </mxCell>
      </root>
    </mxGraphModel>
  </diagram>
</mxfile>
